<svg width="781" height="164" viewBox="0 0 781 164" fill="none" xmlns="http://www.w3.org/2000/svg">
<path d="M159.6 115.9C156.5 110 151.4 100.3 150.4 98.3999L149.8 97.1999L137.8 97.2999L125.8 97.3999V71.6999V45.9999L123.3 44.3999C120.1 42.2999 116.3 39.7999 108.3 34.4999C104.7 32.0999 98.8001 28.1999 95.1001 25.7999C91.4001 23.3999 87.1001 20.5999 85.6001 19.4999C82.2001 17.1999 82.1001 17.1999 81.9001 17.4999C81.8001 17.5999 79.9001 21.0999 77.7001 25.1999C75.5001 29.2999 73.0001 33.8999 72.2001 35.2999C71.4001 36.6999 69.8001 39.5999 68.7001 41.6999C67.7001 43.4999 66.8001 45.0999 66.6001 45.4999C66.4001 45.5999 66.1001 45.5999 65.4001 45.6999C63.4001 45.6999 58.8001 45.7999 53.5001 45.7999H40.7001V73.3999L40.6001 101L37.4001 103.2C34.5001 105.2 31.5001 107.2 20.2001 114.9C18.0001 116.4 14.9001 118.5 13.3001 119.6C11.7001 120.7 9.0001 122.5 7.3001 123.7C5.6001 124.9 4.1001 125.9 4.1001 126.1C4.1001 126.3 6.8001 131.7 10.0001 137.8C10.5001 138.8 11.7001 141 12.5001 142.6C13.3001 144.2 14.6001 146.6 15.3001 148C16.0001 149.4 16.9001 151.2 17.3001 152C17.7001 152.8 18.2001 153.7 18.4001 154.1L18.8001 154.7H44.1001H69.4001L69.8001 154C71.0001 151.8 75.4001 143.9 76.3001 142.2C78.5001 138 81.4001 132.8 82.0001 131.8C82.0001 131.7 82.1001 131.7 82.1001 131.6C82.2001 131.6 82.3001 131.6 82.4001 131.6C82.7001 131.7 83.3001 132.1 84.4001 132.9C89.8001 136.7 94.7001 140 114.9 153.6C117.8 155.6 120.4 157.2 120.5 157.2C120.7 157.2 121.4 156.8 122.2 156.2C123 155.7 124.2 154.8 125.1 154.2C125.9 153.6 127.4 152.6 128.4 151.9C129.4 151.2 130.9 150.2 131.7 149.6C132.5 149 134.3 147.8 135.6 146.9C136.9 146 138.5 144.9 139.1 144.5C139.7 144.1 140.8 143.3 141.5 142.8C145.2 140.2 147.7 138.4 149.1 137.5C150 136.9 151.7 135.6 153.1 134.7C155.8 132.8 156 132.6 159.8 130C161.3 129 163 127.8 163.6 127.3C164.2 126.9 164.8 126.4 164.8 126.3C164.8 125.8 163.3 122.8 159.6 115.9ZM120.4 150.4C120.4 150.5 120.3 150.7 120.3 150.8C120.1 150.8 119.5 150.3 116.1 148C115.4 147.5 113.2 146 111.3 144.7C109.3 143.4 106.2 141.3 104.4 140C102.5 138.7 99.3001 136.6 97.3001 135.2C92.0001 131.6 90.7001 130.7 88.9001 129.5C88.1001 128.9 86.8001 128.1 86.2001 127.6C85.4001 127.1 85.0001 126.7 85.0001 126.4C85.0001 126.3 85.1001 126.2 85.1001 126.1C85.1001 126.1 85.1001 126 85.2001 126C85.3001 125.9 86.0001 124.6 86.8001 123.1C87.6001 121.6 88.4001 120.1 88.7001 119.7C88.9001 119.3 89.8001 117.6 90.8001 115.9C91.7001 114.2 93.1001 111.7 93.9001 110.3C94.7001 108.9 95.8001 106.9 96.4001 105.7C97.0001 104.6 97.6001 103.4 97.8001 103.2L98.0001 102.9C98.2001 102.8 98.6001 102.8 99.3001 102.8H106.2C110.6 102.8 115.7 102.7 117.4 102.7H120.5V116.2C120.5 123.7 120.6 134.5 120.6 140.3C120.5 146.2 120.5 149.4 120.4 150.4ZM120.4 55.4999C120.5 58.2999 120.5 63.9999 120.4 75.1999V96.9999V97.2999H110C104.3 97.2999 99.2001 97.3999 98.6001 97.4999C97.5001 97.5999 97.5001 97.6999 96.6001 95.8999C96.2001 95.1999 95.6001 93.9999 95.2001 93.2999C94.8001 92.5999 93.8001 90.7999 93.0001 89.1999C92.2001 87.6999 90.4001 84.1999 88.9001 81.3999C88.2001 79.9999 87.5001 78.7999 87.0001 77.7999C86.6001 76.9999 86.4001 76.4999 86.3001 76.1999C86.5001 75.9999 87.4001 75.2999 90.8001 72.9999C93.3001 71.2999 96.8001 68.8999 100.5 66.3999C102.7 64.8999 105.5 62.9999 108 61.2999C109.4 60.2999 111.6 58.8999 112.8 57.9999C114 57.1999 115.7 55.9999 116.7 55.3999C117.7 54.7999 118.8 53.9999 119.2 53.6999C119.6 53.3999 120 53.1999 120.2 53.0999C120.3 53.3999 120.4 54.0999 120.4 55.4999ZM84.0001 25.0999C84.1001 25.0999 84.1001 25.0999 84.0001 25.0999C84.2001 25.0999 84.6001 25.2999 84.9001 25.4999C85.2001 25.6999 86.4001 26.4999 87.4001 27.1999C88.5001 27.8999 92.3001 30.3999 95.8001 32.6999C111.1 42.7999 117.1 46.6999 117.9 47.0999C118.3 47.3999 118.7 47.6999 118.6 47.6999C118.5 47.7999 117.3 48.5999 115.9 49.5999C113.4 51.1999 107 55.5999 98.9001 61.1999C97.0001 62.4999 94.5001 64.1999 93.3001 64.9999C92.1001 65.7999 89.5001 67.5999 87.6001 68.8999C85.9001 70.0999 84.4001 71.0999 84.0001 71.2999C83.9001 71.1999 83.6001 70.8999 83.2001 70.1999C82.4001 68.6999 80.7001 65.4999 76.9001 58.3999C74.8001 54.3999 72.9001 50.8999 72.1001 49.2999C71.7001 48.4999 71.5001 47.9999 71.4001 47.6999C71.4001 47.4999 72.2001 45.9999 73.2001 44.2999C76.2001 38.9999 76.5001 38.4999 78.3001 35.1999C79.3001 33.3999 80.7001 30.7999 81.5001 29.3999C82.3001 27.9999 83.1001 26.4999 83.3001 26.0999C83.5001 25.7999 83.6001 25.5999 83.7001 25.3999C83.8001 25.1999 83.9001 25.0999 84.0001 25.0999ZM10.9001 127.8C11.1001 127.6 11.8001 127.1 12.9001 126.3C13.9001 125.6 15.4001 124.6 17.7001 123.1C21.4001 120.6 23.8001 118.9 29.4001 115.1C37.8001 109.4 40.8001 107.4 40.9001 107.5C40.9001 107.5 40.9001 107.6 40.9001 107.7C40.9001 109.1 40.9001 117.9 40.8001 128.4L40.7001 149.3H31.4001H22.1001L21.5001 148.2C21.2001 147.6 19.9001 145.1 18.6001 142.7C17.3001 140.3 15.9001 137.5 15.4001 136.6C14.9001 135.7 14.2001 134.3 13.8001 133.6C13.4001 132.8 12.6001 131.2 11.9001 130C11.4001 129 11.0001 128.1 10.9001 127.8Z" fill="#0052CE"/>
<path d="M179.8 128.4V54.2002H192V128.5H179.8V128.4ZM188.2 128.4V117.3H207.7C212.8 117.3 217.3 116.2 221.1 114C225 111.8 228 108.7 230.1 104.8C232.3 100.9 233.3 96.3002 233.3 91.2002C233.3 86.1002 232.2 81.6002 230 77.7002C227.8 73.8002 224.8 70.8002 220.9 68.6002C217 66.4002 212.6 65.3002 207.6 65.3002H188.1V54.2002H208C213.4 54.2002 218.4 55.1002 223 57.0002C227.6 58.9002 231.6 61.5002 235 64.9002C238.4 68.3002 241.1 72.2002 243 76.7002C244.9 81.2002 245.9 86.1002 245.9 91.4002C245.9 96.6002 244.9 101.5 243 106C241.1 110.5 238.4 114.5 235 117.8C231.6 121.2 227.6 123.8 223 125.7C218.4 127.6 213.5 128.5 208.1 128.5H188.2V128.4Z" fill="#0052CE"/>
<path d="M280.4 129.5C275.3 129.5 270.7 128.4 266.7 126.1C262.6 123.8 259.4 120.6 257 116.6C254.6 112.6 253.4 108 253.4 103C253.4 98 254.6 93.5 256.9 89.5C259.2 85.5 262.4 82.3 266.4 80C270.4 77.7 274.8 76.5 279.7 76.5C284.4 76.5 288.6 77.6 292.3 79.8C295.9 82 298.8 85 300.9 88.8C303 92.6 304 97 304 101.8C304 102.6 303.9 103.5 303.8 104.4C303.7 105.3 303.5 106.3 303.3 107.3H261.5V97.8H297.3L293 101.6C292.9 98.5 292.3 95.9 291.2 93.7C290.1 91.5 288.6 90 286.7 88.8C284.8 87.7 282.4 87.1 279.5 87.1C276.5 87.1 273.9 87.7 271.8 89C269.6 90.3 267.9 92.1 266.7 94.4C265.5 96.7 264.9 99.4 264.9 102.6C264.9 105.8 265.5 108.6 266.8 111C268.1 113.4 269.9 115.3 272.2 116.6C274.5 117.9 277.2 118.6 280.3 118.6C282.9 118.6 285.3 118.1 287.6 117.2C289.8 116.3 291.7 114.9 293.3 113.2L300.7 120.7C298.2 123.6 295.2 125.8 291.7 127.3C288.1 128.7 284.3 129.5 280.4 129.5Z" fill="#0052CE"/>
<path d="M337 129.5C331.9 129.5 327.3 128.4 323.3 126.1C319.2 123.8 316 120.6 313.6 116.6C311.2 112.6 310 108 310 103C310 98 311.2 93.5 313.5 89.5C315.8 85.5 319 82.3 323 80C327 77.7 331.4 76.5 336.3 76.5C341 76.5 345.2 77.6 348.9 79.8C352.5 82 355.4 85 357.5 88.8C359.6 92.6 360.6 97 360.6 101.8C360.6 102.6 360.5 103.5 360.4 104.4C360.3 105.3 360.1 106.3 359.9 107.3H318.1V97.8H354L349.7 101.6C349.6 98.5 349 95.9 347.9 93.7C346.8 91.5 345.3 90 343.4 88.8C341.5 87.7 339.1 87.1 336.2 87.1C333.2 87.1 330.6 87.7 328.5 89C326.3 90.3 324.6 92.1 323.4 94.4C322.2 96.7 321.6 99.4 321.6 102.6C321.6 105.8 322.2 108.6 323.5 111C324.8 113.4 326.6 115.3 328.9 116.6C331.2 117.9 333.9 118.6 337 118.6C339.6 118.6 342 118.1 344.3 117.2C346.5 116.3 348.4 114.9 350 113.2L357.4 120.7C354.9 123.6 351.9 125.8 348.4 127.3C344.7 128.7 341 129.5 337 129.5Z" fill="#0052CE"/>
<path d="M370 149.6V77.5001H381.7V91.2001L379.7 103.6L381.7 115.9V149.6H370ZM397.3 129.5C393.4 129.5 389.9 128.7 386.9 127C383.9 125.3 381.5 123.1 379.7 120.2C378 117.3 377.1 114 377.1 110.3V95.6001C377.1 91.9001 378 88.6001 379.8 85.7001C381.6 82.8001 384 80.5001 387 78.9001C390 77.2001 393.5 76.4001 397.3 76.4001C401.9 76.4001 406.1 77.6001 409.8 80.0001C413.5 82.4001 416.4 85.6001 418.6 89.5001C420.8 93.5001 421.8 98.0001 421.8 103C421.8 108 420.7 112.4 418.6 116.4C416.4 120.4 413.5 123.6 409.8 125.9C406 128.3 401.9 129.5 397.3 129.5ZM395.4 118.4C398.2 118.4 400.7 117.7 402.9 116.4C405.1 115.1 406.8 113.3 408 110.9C409.2 108.6 409.9 105.9 409.9 102.8C409.9 99.8001 409.3 97.1001 408 94.7001C406.8 92.4001 405.1 90.5001 402.9 89.2001C400.7 87.9001 398.2 87.2001 395.4 87.2001C392.6 87.2001 390.1 87.9001 387.9 89.2001C385.7 90.5001 384 92.3001 382.8 94.7001C381.6 97.0001 381 99.7001 381 102.8C381 105.8 381.6 108.5 382.8 110.9C384 113.2 385.7 115.1 387.9 116.4C390 117.8 392.5 118.4 395.4 118.4Z" fill="#0052CE"/>
<path d="M433.1 128.4V54.2002H445.3V128.5H433.1V128.4ZM441.5 128.4V117.3H461C466.1 117.3 470.6 116.2 474.4 114C478.3 111.8 481.3 108.7 483.4 104.8C485.6 100.9 486.6 96.3002 486.6 91.2002C486.6 86.1002 485.5 81.6002 483.3 77.7002C481.1 73.8002 478.1 70.8002 474.2 68.6002C470.3 66.4002 465.9 65.3002 460.9 65.3002H441.4V54.2002H461.2C466.6 54.2002 471.6 55.1002 476.2 57.0002C480.8 58.9002 484.8 61.5002 488.2 64.9002C491.6 68.3002 494.3 72.2002 496.2 76.7002C498.1 81.2002 499.1 86.1002 499.1 91.4002C499.1 96.6002 498.1 101.5 496.2 106C494.3 110.5 491.6 114.5 488.2 117.8C484.8 121.2 480.8 123.8 476.2 125.7C471.6 127.6 466.7 128.5 461.3 128.5H441.5V128.4Z" fill="#0052CE"/>
<path d="M533.4 129.5C528.4 129.5 524 128.3 519.9 125.9C515.9 123.5 512.7 120.3 510.3 116.3C507.9 112.3 506.7 107.8 506.7 102.8C506.7 97.9 507.9 93.4 510.3 89.4C512.7 85.4 515.9 82.3 519.9 79.9C523.9 77.5 528.4 76.3 533.4 76.3C538.4 76.3 542.9 77.5 547 79.8C551 82.1 554.2 85.3 556.6 89.3C559 93.3 560.2 97.8 560.2 102.7C560.2 107.7 559 112.1 556.6 116.2C554.2 120.2 551 123.4 547 125.8C542.9 128.3 538.4 129.5 533.4 129.5ZM533.4 118.2C536.3 118.2 538.9 117.5 541.1 116.2C543.3 114.9 545.1 113.1 546.3 110.7C547.5 108.3 548.2 105.7 548.2 102.7C548.2 99.7 547.6 97.1 546.3 94.8C545 92.5 543.3 90.8 541.1 89.4C538.9 88.1 536.4 87.4 533.5 87.4C530.7 87.4 528.1 88.1 525.9 89.4C523.7 90.7 521.9 92.5 520.7 94.8C519.5 97.1 518.8 99.7 518.8 102.7C518.8 105.7 519.4 108.3 520.7 110.7C521.9 113 523.7 114.9 525.9 116.2C528 117.6 530.5 118.2 533.4 118.2Z" fill="#0052CE"/>
<path d="M593.2 129.5C588.2 129.5 583.6 128.3 579.6 126C575.5 123.7 572.3 120.5 570 116.5C567.7 112.5 566.5 108 566.5 103C566.5 98 567.7 93.5 570 89.5C572.3 85.5 575.5 82.3 579.6 80C583.7 77.7 588.2 76.5 593.2 76.5C597.2 76.5 600.9 77.3 604.3 78.8C607.7 80.3 610.6 82.5 613.1 85.3L605.5 93C604 91.2 602.2 89.9 600.1 89C598 88.1 595.7 87.7 593.3 87.7C590.4 87.7 587.8 88.4 585.6 89.7C583.4 91 581.6 92.8 580.4 95.1C579.2 97.4 578.5 100 578.5 103.1C578.5 106.1 579.1 108.7 580.4 111C581.6 113.3 583.4 115.1 585.6 116.4C587.8 117.7 590.4 118.4 593.3 118.4C595.8 118.4 598.1 118 600.1 117.1C602.2 116.2 604 114.9 605.5 113.1L613.1 120.8C610.7 123.6 607.8 125.8 604.3 127.3C600.9 128.7 597.2 129.5 593.2 129.5Z" fill="#0052CE"/>
<path d="M638.1 129.5C635.3 129.5 632.5 129.1 629.9 128.4C627.3 127.7 624.9 126.6 622.7 125.2C620.5 123.8 618.6 122.1 617 120.2L624.4 112.8C626.2 114.9 628.2 116.4 630.5 117.4C632.8 118.4 635.4 118.9 638.3 118.9C640.9 118.9 642.9 118.5 644.2 117.7C645.5 116.9 646.2 115.8 646.2 114.3C646.2 112.7 645.6 111.5 644.3 110.7C643 109.9 641.4 109.1 639.4 108.5C637.4 107.9 635.3 107.3 633 106.6C630.8 106 628.7 105.1 626.6 104C624.6 102.9 622.9 101.4 621.7 99.5001C620.4 97.6001 619.8 95.1001 619.8 92.1001C619.8 88.8001 620.6 86.1001 622.1 83.7001C623.6 81.4001 625.8 79.6001 628.6 78.3001C631.4 77.0001 634.7 76.4001 638.6 76.4001C642.7 76.4001 646.3 77.1001 649.5 78.6001C652.6 80.1001 655.3 82.2001 657.4 85.1001L650 92.5001C648.5 90.7001 646.8 89.3001 644.9 88.4001C643 87.5001 640.8 87.0001 638.3 87.0001C636 87.0001 634.2 87.4001 632.9 88.1001C631.6 88.8001 631 89.8001 631 91.2001C631 92.6001 631.6 93.7001 632.9 94.5001C634.2 95.3001 635.8 96.0001 637.8 96.5001C639.8 97.1001 641.9 97.7001 644.2 98.4001C646.4 99.1001 648.5 100 650.6 101.2C652.7 102.4 654.3 103.9 655.5 105.9C656.8 107.8 657.4 110.4 657.4 113.5C657.4 118.5 655.7 122.4 652.2 125.3C648.7 128 644 129.5 638.1 129.5Z" fill="#0052CE"/>
<path d="M681.4 128.4L712 54.1001H720.5L750.8 128.4H737.6L713.8 68.3001H718.3L694.3 128.4H681.4ZM696.4 114.1V103.5H735.8V114.1H696.4Z" fill="#0052CE"/>
<path d="M760.5 128.4V54.2002H772.7V128.5H760.5V128.4Z" fill="#0052CE"/>
</svg>
