<svg width="161" height="141" viewBox="0 0 161 141" fill="none" xmlns="http://www.w3.org/2000/svg">
<path id="Vector" d="M155.6 98.8999C152.5 92.9999 147.4 83.2999 146.4 81.3999L145.8 80.1999L133.8 80.2999L121.8 80.3999V54.6999V28.9999L119.3 27.3999C116.1 25.2999 112.3 22.7999 104.3 17.4999C100.7 15.0999 94.8001 11.1999 91.1001 8.79989C87.4001 6.39989 83.1001 3.5999 81.6001 2.49989C78.2001 0.199895 78.1001 0.199895 77.9001 0.499895C77.8001 0.599895 75.9001 4.0999 73.7001 8.1999C71.5001 12.2999 69.0001 16.8999 68.2001 18.2999C67.4001 19.6999 65.8001 22.5999 64.7001 24.6999C63.7001 26.4999 62.8001 28.0999 62.6001 28.4999C62.4001 28.5999 62.1001 28.5999 61.4001 28.6999C59.4001 28.6999 54.8001 28.7999 49.5001 28.7999H36.7001V56.3999L36.6001 83.9999L33.4001 86.1999C30.5001 88.1999 27.5001 90.1999 16.2001 97.8999C14.0001 99.3999 10.9001 101.5 9.3001 102.6C7.7001 103.7 5.0001 105.5 3.3001 106.7C1.6001 107.9 0.100098 108.9 0.100098 109.1C0.100098 109.3 2.8001 114.7 6.0001 120.8C6.5001 121.8 7.7001 124 8.5001 125.6C9.3001 127.2 10.6001 129.6 11.3001 131C12.0001 132.4 12.9001 134.2 13.3001 135C13.7001 135.8 14.2001 136.7 14.4001 137.1L14.8001 137.7H40.1001H65.4001L65.8001 137C67.0001 134.8 71.4001 126.9 72.3001 125.2C74.5001 121 77.4001 115.8 78.0001 114.8C78.0001 114.7 78.1001 114.7 78.1001 114.6C78.2001 114.6 78.3001 114.6 78.4001 114.6C78.7001 114.7 79.3001 115.1 80.4001 115.9C85.8001 119.7 90.7001 123 110.9 136.6C113.8 138.6 116.4 140.2 116.5 140.2C116.7 140.2 117.4 139.8 118.2 139.2C119 138.7 120.2 137.8 121.1 137.2C121.9 136.6 123.4 135.6 124.4 134.9C125.4 134.2 126.9 133.2 127.7 132.6C128.5 132 130.3 130.8 131.6 129.9C132.9 129 134.5 127.9 135.1 127.5C135.7 127.1 136.8 126.3 137.5 125.8C141.2 123.2 143.7 121.4 145.1 120.5C146 119.9 147.7 118.6 149.1 117.7C151.8 115.8 152 115.6 155.8 113C157.3 112 159 110.8 159.6 110.3C160.2 109.9 160.8 109.4 160.8 109.3C160.8 108.8 159.3 105.8 155.6 98.8999ZM116.4 133.4C116.4 133.5 116.3 133.7 116.3 133.8C116.1 133.8 115.5 133.3 112.1 131C111.4 130.5 109.2 129 107.3 127.7C105.3 126.4 102.2 124.3 100.4 123C98.5001 121.7 95.3001 119.6 93.3001 118.2C88.0001 114.6 86.7001 113.7 84.9001 112.5C84.1001 111.9 82.8001 111.1 82.2001 110.6C81.4001 110.1 81.0001 109.7 81.0001 109.4C81.0001 109.3 81.1001 109.2 81.1001 109.1C81.1001 109.1 81.1001 109 81.2001 109C81.3001 108.9 82.0001 107.6 82.8001 106.1C83.6001 104.6 84.4001 103.1 84.7001 102.7C84.9001 102.3 85.8001 100.6 86.8001 98.8999C87.7001 97.1999 89.1001 94.6999 89.9001 93.2999C90.7001 91.8999 91.8001 89.8999 92.4001 88.6999C93.0001 87.5999 93.6001 86.3999 93.8001 86.1999L94.0001 85.8999C94.2001 85.7999 94.6001 85.7999 95.3001 85.7999H102.2C106.6 85.7999 111.7 85.6999 113.4 85.6999H116.5V99.1999C116.5 106.7 116.6 117.5 116.6 123.3C116.5 129.2 116.5 132.4 116.4 133.4ZM116.4 38.4999C116.5 41.2999 116.5 46.9999 116.4 58.1999V79.9999V80.2999H106C100.3 80.2999 95.2001 80.3999 94.6001 80.4999C93.5001 80.5999 93.5001 80.6999 92.6001 78.8999C92.2001 78.1999 91.6001 76.9999 91.2001 76.2999C90.8001 75.5999 89.8001 73.7999 89.0001 72.1999C88.2001 70.6999 86.4001 67.1999 84.9001 64.3999C84.2001 62.9999 83.5001 61.7999 83.0001 60.7999C82.6001 59.9999 82.4001 59.4999 82.3001 59.1999C82.5001 58.9999 83.4001 58.2999 86.8001 55.9999C89.3001 54.2999 92.8001 51.8999 96.5001 49.3999C98.7001 47.8999 101.5 45.9999 104 44.2999C105.4 43.2999 107.6 41.8999 108.8 40.9999C110 40.1999 111.7 38.9999 112.7 38.3999C113.7 37.7999 114.8 36.9999 115.2 36.6999C115.6 36.3999 116 36.1999 116.2 36.0999C116.3 36.3999 116.4 37.0999 116.4 38.4999ZM80.0001 8.0999C80.1001 8.0999 80.1001 8.0999 80.0001 8.0999C80.2001 8.0999 80.6001 8.2999 80.9001 8.4999C81.2001 8.69989 82.4001 9.4999 83.4001 10.1999C84.5001 10.8999 88.3001 13.3999 91.8001 15.6999C107.1 25.7999 113.1 29.6999 113.9 30.0999C114.3 30.3999 114.7 30.6999 114.6 30.6999C114.5 30.7999 113.3 31.5999 111.9 32.5999C109.4 34.1999 103 38.5999 94.9001 44.1999C93.0001 45.4999 90.5001 47.1999 89.3001 47.9999C88.1001 48.7999 85.5001 50.5999 83.6001 51.8999C81.9001 53.0999 80.4001 54.0999 80.0001 54.2999C79.9001 54.1999 79.6001 53.8999 79.2001 53.1999C78.4001 51.6999 76.7001 48.4999 72.9001 41.3999C70.8001 37.3999 68.9001 33.8999 68.1001 32.2999C67.7001 31.4999 67.5001 30.9999 67.4001 30.6999C67.4001 30.4999 68.2001 28.9999 69.2001 27.2999C72.2001 21.9999 72.5001 21.4999 74.3001 18.1999C75.3001 16.3999 76.7001 13.7999 77.5001 12.3999C78.3001 10.9999 79.1001 9.4999 79.3001 9.0999C79.5001 8.7999 79.6001 8.59989 79.7001 8.39989C79.8001 8.19989 79.9001 8.0999 80.0001 8.0999ZM6.9001 110.8C7.1001 110.6 7.8001 110.1 8.9001 109.3C9.9001 108.6 11.4001 107.6 13.7001 106.1C17.4001 103.6 19.8001 101.9 25.4001 98.0999C33.8001 92.3999 36.8001 90.3999 36.9001 90.4999C36.9001 90.4999 36.9001 90.5999 36.9001 90.6999C36.9001 92.0999 36.9001 100.9 36.8001 111.4L36.7001 132.3H27.4001H18.1001L17.5001 131.2C17.2001 130.6 15.9001 128.1 14.6001 125.7C13.3001 123.3 11.9001 120.5 11.4001 119.6C10.9001 118.7 10.2001 117.3 9.8001 116.6C9.4001 115.8 8.6001 114.2 7.9001 113C7.4001 112 7.0001 111.1 6.9001 110.8Z" fill="#0052CE"/>
</svg>
