<svg width="161" height="140" viewBox="0 0 161 140" fill="none" xmlns="http://www.w3.org/2000/svg">
<rect width="160.7" height="139.838" fill="white"/>
<path d="M155.5 98.5381C152.4 92.6381 147.3 82.9381 146.3 81.0381L145.7 79.8381L133.7 79.9381L121.7 80.0381V54.3381V28.6381L119.2 27.0381C116 24.9381 112.2 22.4381 104.2 17.1381C100.6 14.7381 94.7 10.8381 91 8.43808C87.3 6.03808 83 3.23808 81.5 2.13808C78.1 -0.161922 78 -0.161921 77.8 0.138079C77.7 0.238079 75.8 3.73808 73.6 7.83808C71.4 11.9381 68.9 16.5381 68.1 17.9381C67.3 19.3381 65.7 22.2381 64.6 24.3381C63.6 26.1381 62.7 27.7381 62.5 28.1381C62.3 28.2381 62 28.2381 61.3 28.3381C59.3 28.3381 54.7 28.4381 49.4 28.4381H36.6V56.0381L36.5 83.6381L33.3 85.8381C30.4 87.8381 27.4 89.8381 16.1 97.5381C13.9 99.0381 10.8 101.138 9.2 102.238C7.6 103.338 4.9 105.138 3.2 106.338C1.5 107.538 0 108.538 0 108.738C0 108.938 2.7 114.338 5.9 120.438C6.4 121.438 7.6 123.638 8.4 125.238C9.2 126.838 10.5 129.238 11.2 130.638C11.9 132.038 12.8 133.838 13.2 134.638C13.6 135.438 14.1 136.338 14.3 136.738L14.7 137.338H40H65.3L65.7 136.638C66.9 134.438 71.3 126.538 72.2 124.838C74.4 120.638 77.3 115.438 77.9 114.438C77.9 114.338 78 114.338 78 114.238C78.1 114.238 78.2 114.238 78.3 114.238C78.6 114.338 79.2 114.738 80.3 115.538C85.7 119.338 90.6 122.638 110.8 136.238C113.7 138.238 116.3 139.838 116.4 139.838C116.6 139.838 117.3 139.438 118.1 138.838C118.9 138.338 120.1 137.438 121 136.838C121.8 136.238 123.3 135.238 124.3 134.538C125.3 133.838 126.8 132.838 127.6 132.238C128.4 131.638 130.2 130.438 131.5 129.538C132.8 128.638 134.4 127.538 135 127.138C135.6 126.738 136.7 125.938 137.4 125.438C141.1 122.838 143.6 121.038 145 120.138C145.9 119.538 147.6 118.238 149 117.338C151.7 115.438 151.9 115.238 155.7 112.638C157.2 111.638 158.9 110.438 159.5 109.938C160.1 109.538 160.7 109.038 160.7 108.938C160.7 108.438 159.2 105.438 155.5 98.5381ZM116.3 133.038C116.3 133.138 116.2 133.338 116.2 133.438C116 133.438 115.4 132.938 112 130.638C111.3 130.138 109.1 128.638 107.2 127.338C105.2 126.038 102.1 123.938 100.3 122.638C98.4 121.338 95.2 119.238 93.2 117.838C87.9 114.238 86.6 113.338 84.8 112.138C84 111.538 82.7 110.738 82.1 110.238C81.3 109.738 80.9 109.338 80.9 109.038C80.9 108.938 81 108.838 81 108.738C81 108.738 81 108.638 81.1 108.638C81.2 108.538 81.9 107.238 82.7 105.738C83.5 104.238 84.3 102.738 84.6 102.338C84.8 101.938 85.7 100.238 86.7 98.5381C87.6 96.8381 89 94.3381 89.8 92.9381C90.6 91.5381 91.7 89.5381 92.3 88.3381C92.9 87.2381 93.5 86.0381 93.7 85.8381L93.9 85.5381C94.1 85.4381 94.5 85.4381 95.2 85.4381H102.1C106.5 85.4381 111.6 85.3381 113.3 85.3381H116.4V98.8381C116.4 106.338 116.5 117.138 116.5 122.938C116.4 128.838 116.4 132.038 116.3 133.038ZM116.3 38.1381C116.4 40.9381 116.4 46.6381 116.3 57.8381V79.6381V79.9381H105.9C100.2 79.9381 95.1 80.0381 94.5 80.1381C93.4 80.2381 93.4 80.3381 92.5 78.5381C92.1 77.8381 91.5 76.6381 91.1 75.9381C90.7 75.2381 89.7 73.4381 88.9 71.8381C88.1 70.3381 86.3 66.8381 84.8 64.0381C84.1 62.6381 83.4 61.4381 82.9 60.4381C82.5 59.6381 82.3 59.1381 82.2 58.8381C82.4 58.6381 83.3 57.9381 86.7 55.6381C89.2 53.9381 92.7 51.5381 96.4 49.0381C98.6 47.5381 101.4 45.6381 103.9 43.9381C105.3 42.9381 107.5 41.5381 108.7 40.6381C109.9 39.8381 111.6 38.6381 112.6 38.0381C113.6 37.4381 114.7 36.6381 115.1 36.3381C115.5 36.0381 115.9 35.8381 116.1 35.7381C116.2 36.0381 116.3 36.7381 116.3 38.1381ZM79.9 7.73808C80 7.73808 80 7.73808 79.9 7.73808C80.1 7.73808 80.5 7.93808 80.8 8.13808C81.1 8.33808 82.3 9.13808 83.3 9.83808C84.4 10.5381 88.2 13.0381 91.7 15.3381C107 25.4381 113 29.3381 113.8 29.7381C114.2 30.0381 114.6 30.3381 114.5 30.3381C114.4 30.4381 113.2 31.2381 111.8 32.2381C109.3 33.8381 102.9 38.2381 94.8 43.8381C92.9 45.1381 90.4 46.8381 89.2 47.6381C88 48.4381 85.4 50.2381 83.5 51.5381C81.8 52.7381 80.3 53.7381 79.9 53.9381C79.8 53.8381 79.5 53.5381 79.1 52.8381C78.3 51.3381 76.6 48.1381 72.8 41.0381C70.7 37.0381 68.8 33.5381 68 31.9381C67.6 31.1381 67.4 30.6381 67.3 30.3381C67.3 30.1381 68.1 28.6381 69.1 26.9381C72.1 21.6381 72.4 21.1381 74.2 17.8381C75.2 16.0381 76.6 13.4381 77.4 12.0381C78.2 10.6381 79 9.13808 79.2 8.73808C79.4 8.43808 79.5 8.23808 79.6 8.03808C79.7 7.83808 79.8 7.73808 79.9 7.73808ZM6.8 110.438C7 110.238 7.7 109.738 8.8 108.938C9.8 108.238 11.3 107.238 13.6 105.738C17.3 103.238 19.7 101.538 25.3 97.7381C33.7 92.0381 36.7 90.0381 36.8 90.1381C36.8 90.1381 36.8 90.2381 36.8 90.3381C36.8 91.7381 36.8 100.538 36.7 111.038L36.6 131.938H27.3H18L17.4 130.838C17.1 130.238 15.8 127.738 14.5 125.338C13.2 122.938 11.8 120.138 11.3 119.238C10.8 118.338 10.1 116.938 9.7 116.238C9.3 115.438 8.5 113.838 7.8 112.638C7.3 111.638 6.9 110.738 6.8 110.438Z" fill="#0052CE"/>
</svg>
